<?xml version="1.0" encoding="utf-8"?>
<!-- Generator: Adobe Illustrator 25.2.1, SVG Export Plug-In . SVG Version: 6.00 Build 0)  -->
<svg version="1.1" id="Layer_1" xmlns="http://www.w3.org/2000/svg" xmlns:xlink="http://www.w3.org/1999/xlink" x="0px" y="0px"
	 viewBox="0 0 500 200" style="enable-background:new 0 0 500 200;" xml:space="preserve">
<g>
	<g>
		<path d="M10.3,57.5c18.7,0,37.4,0,56.1,0c18.6,0,37.2,0,55.9,0c10.6,0,21.1,0,31.7,0c1.9,0,1.9-3,0-3c-18.7,0-37.4,0-56.1,0
			c-18.6,0-37.2,0-55.9,0c-10.6,0-21.1,0-31.7,0C8.4,54.5,8.4,57.5,10.3,57.5L10.3,57.5z"/>
	</g>
</g>
<g>
	<g>
		<path d="M153,89c0,19.8,0,39.5,0,59.2c0,5.6,0,11.2,0,16.8c0,1.9,3,1.9,3,0c0-19.8,0-39.5,0-59.2c0-5.6,0-11.2,0-16.8
			C156,87.1,153,87.1,153,89L153,89z"/>
	</g>
</g>
<g>
	<g>
		<path d="M329,101c-24.4,0-48.9,0-73.3,0s-48.9,0-73.3,0c-13.8,0-27.6,0-41.4,0c-1.9,0-1.9,3,0,3c24.4,0,48.9,0,73.3,0
			s48.9,0,73.3,0c13.8,0,27.6,0,41.4,0C330.9,104,330.9,101,329,101L329,101z"/>
	</g>
</g>
<g>
	<g>
		<path d="M69.6,56.1c1.3,23.8,2.2,48.2-3.6,71.5c-2.6,10.3-6.4,20.3-11.9,29.3c-5.5,9-12.8,16.7-21.4,22.9c-9.6,7-20.2,12.2-31,17
			c-1.8,0.8-0.2,3.4,1.5,2.6c19.5-8.8,38.7-19.3,51.1-37.4c12.7-18.5,17.6-41.3,18.9-63.4c0.8-14.2,0.2-28.3-0.6-42.5
			C72.5,54.2,69.5,54.2,69.6,56.1L69.6,56.1z"/>
	</g>
</g>
<g>
	<g>
		<path d="M28.1,128.4c16.2,16.8,34.9,31.2,55.5,42.2c21.3,11.4,44.4,19.2,68.1,23.3c14.5,2.5,29.2,3.8,43.9,3.9c1.9,0,1.9-3,0-3
			c-25.3-0.2-50.5-3.8-74.6-11.6c-22.1-7.1-43.1-17.8-61.8-31.6c-10.4-7.6-20-16.2-29-25.4C28.9,124.9,26.7,127,28.1,128.4
			L28.1,128.4z"/>
	</g>
</g>
<g>
	<g>
		<path d="M90,23.7c-0.1,8.3-5.3,16.1-13.2,19c-8,2.9-17.1,0.4-22.5-6.1c-5.4-6.5-6-16.1-1.7-23.3c4.4-7.2,13-11,21.3-9.3
			C83.2,5.9,89.9,14.2,90,23.7c0,1.9,3,1.9,3,0C92.9,14,86.8,5.3,77.7,1.9C68.7-1.5,58,1.5,51.9,9c-6.1,7.5-7,18.3-1.9,26.7
			c5,8.3,14.8,12.6,24.3,10.8C85.1,44.4,92.9,34.6,93,23.7C93,21.8,90,21.8,90,23.7z"/>
	</g>
</g>
<g>
	<path d="M335,106.3V100c0-11.5,6.2-17.9,12.9-17.9c5,0,9.4,3.4,11.5,9.8l-2,1.3c-1.8-5.3-5.3-8.2-9.5-8.2
		c-5.9,0-10.7,5.6-10.7,15.2v5.9c0,9.6,4.8,15.2,10.7,15.2c4.2,0,7.7-2.8,9.5-8.2l2,1.3c-2.1,6.3-6.5,9.8-11.5,9.8
		C341.2,124.2,335,117.9,335,106.3z"/>
	<path d="M365.3,106.3V100c0-11.5,6.2-17.9,12.9-17.9c6.8,0,12.9,6.3,12.9,17.9v6.3c0,11.5-6.2,17.9-12.9,17.9
		C371.5,124.2,365.3,117.9,365.3,106.3z M388.9,106.1v-5.9c0-9.6-4.9-15.2-10.7-15.2c-5.8,0-10.7,5.6-10.7,15.2v5.9
		c0,9.6,4.9,15.2,10.7,15.2S388.9,115.7,388.9,106.1z"/>
	<path d="M420.1,67h2.2v56.2h-2l-0.2-7c-2.2,5.3-6.1,8.1-10.8,8.1c-6.2,0-12.1-6.4-12.1-17.9V100c0-11.5,5.9-17.9,12.1-17.9
		c4.6,0,8.6,2.7,10.7,8V67z M420.1,106.1v-5.9c0-9.5-4.5-15.2-10.3-15.2s-10.4,5.7-10.4,15.2v5.9c0,9.5,4.6,15.2,10.4,15.2
		C415.5,121.3,420.1,115.6,420.1,106.1z"/>
	<path d="M431,70.9c0-1.6,0.9-2.9,2.1-2.9c1.1,0,2,1.3,2,2.9c0,1.5-0.9,2.8-2,2.8S431,72.5,431,70.9z M431.9,123.2v-40h2.2v40H431.9
		z"/>
	<path d="M467.3,98.5v24.7H465V98.7c0-7.9-2.6-13.7-9-13.7c-6,0-10.1,6.1-10.1,14.2v23.9h-2.2v-40h2l0.2,7c2-4.9,5.6-8,10.4-8
		C463.5,82.1,467.3,88.9,467.3,98.5z"/>
	<path d="M497,83.2h2v34.6c0,11.6-5.2,18.4-12.3,18.4c-5.1,0-9.6-2.3-11.8-7.5l2-1.5c1.6,4.1,5.5,6.1,9.8,6.1
		c6.5,0,10.1-6.2,10.1-15.8v-3.9c-2.1,4.9-6.1,7.6-10.7,7.6c-6.2,0-12.2-6.3-12.2-17.1v-4.9c0-10.6,5.9-17.1,12.2-17.1
		c4.6,0,8.6,2.9,10.7,7.8L497,83.2z M496.7,103.9v-4.6c0-8.8-4.6-14.3-10.3-14.3c-5.8,0-10.4,5.5-10.4,14.3v4.6
		c0,8.8,4.6,14.4,10.4,14.4S496.7,112.7,496.7,103.9z"/>
</g>
</svg>
